<?xml version="1.0" encoding="UTF-8"?>
<svg xmlns="http://www.w3.org/2000/svg" xmlns:xlink="http://www.w3.org/1999/xlink" xmlns:ev="http://www.w3.org/2001/xml-events" xmlns:v="http://schemas.microsoft.com/visio/2003/SVGExtensions/" viewBox="221.07 11.01 371.48 138.61" width="371.5" height="138.6">
<style type="text/css">
	<![CDATA[
		.st1 {fill:#ffffff;stroke:#000000;stroke-width:11.3386}
		.st2 {fill:#000000;font-family:맑은 고딕;font-size:1.00001em}
		.st3 {fill:#ce1b1b;stroke:#000000;stroke-linecap:round;stroke-linejoin:round;stroke-opacity:0;stroke-width:0.75}
		.st4 {fill:none;stroke:none;stroke-linecap:round;stroke-linejoin:round;stroke-width:0.75}
		.st5 {fill:#ffffff;font-family:Lucida Handwriting;font-size:1.16666em}
		.st6 {fill:#ffffff;fill-opacity:0.32;stroke:none;stroke-linecap:round;stroke-linejoin:round;stroke-width:0.75}
		.st7 {fill:#f2f2f2;stroke:none;stroke-linecap:round;stroke-linejoin:round;stroke-width:0.75}
		.st8 {fill:#ffffff;font-family:Lucida Handwriting;font-size:1.5em}
		.st9 {fill:#ffffff;font-family:IBM Plex Sans KR;font-size:0.666664em}
		.st10 {fill:#3f3f3f;stroke:none;stroke-linecap:round;stroke-linejoin:round;stroke-width:0.75}
		.st11 {fill:#f2f2f2;font-family:맑은 고딕;font-size:0.499992em}
		.st12 {stroke:#f2f2f2;stroke-width:0.75}
		.st13 {fill:#f2f2f2;font-family:맑은 고딕;font-size:0.75em}
		.st14 {font-size:1em}
		.st15 {fill:#ce1b1b;stroke:none;stroke-linecap:butt;stroke-width:0.75}
		.st16 {fill:#040000;stroke:none;stroke-linecap:butt;stroke-width:0.75}
		.st17 {baseline-shift:26.0005%;font-size:0.520011em}
		.st18 {fill:#ffffff;stroke:none;stroke-linecap:round;stroke-linejoin:round;stroke-width:0.75}
		.st19 {fill:#ffffff;fill-opacity:0.75;stroke:none;stroke-linecap:round;stroke-linejoin:round;stroke-width:0.75}
		.st20 {fill:#000000;font-family:IBM Plex Sans KR Medm;font-size:0.75em}
		.st21 {fill:#ffffff;font-family:맑은 고딕;font-size:1.99999em}
		.st22 {fill:#000000;font-family:IBM Plex Sans KR;font-size:0.499992em}
		.st23 {fill:#ffffff;font-family:맑은 고딕;font-size:1.99999em;letter-spacing:-0.0166667em}
		.st24 {fill:#ce1b1b;font-family:IBM Plex Sans KR Medm;font-size:1.00001em;letter-spacing:-0.0666662em}
		.st25 {fill:none;fill-rule:evenodd;font-size:12px;overflow:visible;stroke-linecap:square;stroke-miterlimit:3}
	]]>
	</style>
<!-- Billy Elliot 로고 (벡터: BILLY ELLIOT + 댄서 + THE MUSICAL) -->
<g id="group6234-2484" transform="translate(225.709,-1245.21)" v:mID="6234" v:groupContext="group">
			<title>시트.6234</title>
			<g id="shape6235-2485" v:mID="6235" v:groupContext="shape" transform="translate(3.8375,-0.957557)">
				<title>시트.6235</title>
				<path d="M142.18 1282.25 L142.18 1363.19 L164.31 1363.19 L164.31 1352.52 L156.03 1352.52 L156.03 1324.11 L164.31
							 1324.11 L164.31 1313.45 L156.03 1313.45 L156.03 1292.82 L164.31 1292.82 L164.31 1282.25 L142.18 1282.25
							 ZM181.19 1282.25 L181.19 1352.52 L189.46 1352.52 L189.46 1363.19 L167.34 1363.19 L167.34 1282.25 L181.19
							 1282.25 ZM192.49 1282.25 L192.49 1363.19 L214.62 1363.19 L214.62 1352.52 L206.35 1352.52 L206.35 1282.25
							 L192.49 1282.25 ZM231.51 1363.19 L217.65 1363.19 L217.65 1282.25 L231.51 1282.25 L231.51 1363.19 ZM266.47
							 1347.54 L266.47 1297.9 C266.47 1283.95 264.48 1281.75 250.43 1281.75 C236.07 1281.75 234.48 1284.14
							 234.48 1297.9 L234.48 1347.54 C234.48 1361.49 236.47 1363.79 250.63 1363.79 C264.68 1363.79 266.47 1361.19
							 266.47 1347.54 ZM252.62 1349.53 C252.62 1351.83 252.22 1352.92 250.53 1352.92 C248.83 1352.92 248.23
							 1351.92 248.23 1349.53 L248.23 1296.01 C248.23 1293.72 248.73 1292.52 250.33 1292.52 C252.12 1292.52
							 252.62 1293.72 252.62 1296.01 L252.62 1349.53 ZM296.15 1282.25 L296.15 1293.02 L289.37 1293.02 L289.37
							 1363.19 L275.52 1363.19 L275.52 1293.02 L268.73 1293.02 L268.73 1282.25 L296.15 1282.25 ZM25.92 1319.45
							 C30.5 1317.55 32 1313.86 32 1307.29 L32 1296.62 C32 1285.56 29 1282.27 17.04 1282.27 L0 1282.27 L0 1363.2
							 L15.75 1363.2 C30.2 1363.2 32 1359.72 32 1346.86 L32 1332.01 C32 1325.43 31 1321.74 25.92 1319.45 ZM18.24
							 1310.28 C18.24 1312.87 17.44 1313.86 15.05 1313.86 C14.65 1313.86 14.25 1313.77 13.85 1313.77 L13.85
							 1292.83 L15.35 1292.83 C17.44 1292.83 18.24 1293.73 18.24 1296.22 L18.24 1310.28 ZM18.24 1349.05 C18.24
							 1351.64 17.44 1352.64 15.15 1352.64 C14.75 1352.64 14.35 1352.64 13.85 1352.54 L13.85 1325.63 C14.25
							 1325.63 14.65 1325.53 15.05 1325.53 C17.34 1325.53 18.24 1326.43 18.24 1329.01 L18.24 1349.05 ZM49.06
							 1363.2 L35.2 1363.2 L35.2 1282.27 L49.06 1282.27 L49.06 1363.2 ZM52.2 1282.27 L52.2 1363.2 L74.33 1363.2
							 L74.33 1352.54 L66.06 1352.54 L66.06 1282.27 L52.2 1282.27 L52.2 1282.27 ZM91.36 1282.27 L91.36 1352.54
							 L99.63 1352.54 L99.63 1363.2 L77.5 1363.2 L77.5 1282.27 L91.36 1282.27 ZM94.7 1282.27 L104.57 1330.51
							 L104.57 1363.2 L118.92 1363.2 L118.92 1330.51 L128.09 1282.27 L115.03 1282.27 L111.74 1313.47 L108.16
							 1282.27 L94.7 1282.27 ZM222.82 1367.34 L222.82 1369.4 L221.58 1369.4 L221.58 1387.04 L218.89 1387.04
							 L218.89 1369.4 L217.65 1369.4 L217.65 1367.34 L222.82 1367.34 ZM223.7 1367.34 L223.7 1387.04 L226.32
							 1387.04 L226.32 1377.16 L227.31 1377.16 L227.31 1387.04 L229.96 1387.04 L229.96 1367.34 L227.31 1367.34
							 L227.31 1375.08 L226.32 1375.08 L226.32 1367.34 L223.7 1367.34 ZM235.86 1367.34 L235.86 1369.4 L234.26
							 1369.4 L234.26 1375.2 L235.86 1375.2 L235.86 1377.29 L234.26 1377.29 L234.26 1384.95 L235.86 1384.95
							 L235.86 1387.04 L231.57 1387.04 L231.57 1367.34 L235.86 1367.34 L235.86 1367.34 ZM241.6 1367.34 L241.6
							 1387.04 L243.96 1387.04 L243.71 1375.15 L243.98 1375.15 L245.12 1387.04 L246.38 1387.04 L247.52 1375.15
							 L247.79 1375.15 L247.57 1387.04 L249.92 1387.04 L249.92 1367.34 L246.96 1367.34 L245.85 1376.34 L245.65
							 1376.34 L244.56 1367.34 L241.6 1367.34 ZM254.14 1367.34 L254.14 1384.34 C254.14 1384.8 254.24 1385.07
							 254.6 1385.07 C254.94 1385.07 255.03 1384.8 255.03 1384.34 L255.03 1367.34 L257.75 1367.34 L257.75 1383.37
							 C257.75 1386.33 257.53 1387.13 254.67 1387.13 C251.66 1387.13 251.44 1386.46 251.44 1383.37 L251.44
							 1367.34 L254.14 1367.34 ZM265.42 1371.03 C265.42 1368 265.18 1367.27 262.26 1367.27 C259.36 1367.27
							 259.14 1368 259.14 1371.03 L259.14 1374.3 C259.14 1375.47 259.23 1376.27 260.37 1376.97 L262.04 1377.99
							 C262.7 1378.4 262.73 1378.52 262.73 1379.13 L262.73 1384.34 C262.73 1384.8 262.6 1385.07 262.26 1385.07
							 C261.9 1385.07 261.83 1384.8 261.83 1384.34 L261.83 1378.72 L259.14 1378.72 L259.14 1383.37 C259.14
							 1386.31 259.33 1387.13 262.19 1387.13 C265.18 1387.13 265.42 1386.46 265.42 1383.37 L265.42 1378.96
							 C265.42 1377.77 265.27 1376.95 264.16 1376.27 L262.5 1375.27 C261.85 1374.86 261.83 1374.72 261.83 1374.11
							 L261.83 1370.06 C261.83 1369.6 261.9 1369.36 262.26 1369.36 C262.6 1369.36 262.73 1369.6 262.73 1370.06
							 L262.73 1374.06 L265.42 1374.06 L265.42 1371.03 ZM269.57 1387.04 L266.88 1387.04 L266.88 1367.34 L269.57
							 1367.34 L269.57 1387.04 ZM277.34 1371.03 C277.34 1368 277.13 1367.27 274.22 1367.27 C271.31 1367.27
							 271.06 1368 271.06 1371.03 L271.06 1383.37 C271.06 1386.46 271.28 1387.13 274.29 1387.13 C277.15 1387.13
							 277.34 1386.33 277.34 1383.37 L277.34 1378.72 L274.65 1378.72 L274.65 1384.34 C274.65 1384.8 274.56
							 1385.07 274.22 1385.07 C273.85 1385.07 273.75 1384.8 273.75 1384.34 L273.75 1370.06 C273.75 1369.6 273.85
							 1369.36 274.22 1369.36 C274.56 1369.36 274.65 1369.6 274.65 1370.06 L274.65 1374.06 L277.34 1374.06
							 L277.34 1371.03 ZM282.39 1387.04 L282.2 1382.55 L281.01 1382.55 L280.84 1387.04 L278.12 1387.04 L279.6
							 1367.34 L283.6 1367.34 L285.08 1387.04 L282.39 1387.04 ZM281.64 1370.28 L281.57 1370.28 L281.11 1380.46
							 L282.12 1380.46 L281.64 1370.28 ZM286.57 1367.34 L286.57 1387.04 L290.86 1387.04 L290.86 1384.95 L289.26
							 1384.95 L289.26 1367.34 L286.57 1367.34 L286.57 1367.34 Z" class="st15"/>
			</g>
			<g id="shape6236-2487" v:mID="6236" v:groupContext="shape" transform="translate(270.694,2.27374E-13)">
				<title>시트.6236</title>
				<path d="M60.07 1295.52 C60.01 1295.54 60.04 1295.51 60.01 1295.55 L59.92 1295.55 L59.92 1295.52 C59.89 1295.48 59.91
							 1295.52 59.89 1295.46 C59.94 1295.43 59.97 1295.42 60.01 1295.37 L60.13 1295.37 C60.11 1295.44 60.09
							 1295.46 60.07 1295.52 ZM52.97 1365.92 C52.97 1365.96 52.95 1365.99 52.94 1366.03 C52.88 1366.23 52.89
							 1366.63 52.75 1366.78 C52.65 1366.88 52.11 1366.51 51.97 1366.43 C51.36 1366.11 50.68 1365.91 50.05
							 1365.61 C49.84 1365.51 49.67 1365.4 49.5 1365.23 C49.32 1365.04 49.5 1364.53 49.33 1364.27 C49.18 1364.05
							 49.06 1363.8 48.87 1363.63 C48.78 1363.55 48.58 1363.39 48.58 1363.26 C48.38 1363.09 48.16 1362.91 48.04
							 1362.67 C48.44 1362.53 48.79 1362.21 49.16 1362.02 C49.59 1361.8 50.07 1361.54 50.44 1361.26 C50.72
							 1361.05 51.06 1360.94 51.37 1360.79 C51.79 1360.6 51.76 1360.78 51.92 1361.11 C52.25 1361.81 52.39 1362.61
							 52.6 1363.35 C52.74 1363.86 52.91 1364.45 52.97 1364.96 C53.01 1365.3 53.05 1365.59 52.97 1365.92 ZM88.81
							 1311.38 C88.76 1311.38 88.33 1311.29 88.8 1311.37 C88.22 1311.27 87.71 1311 87.32 1310.55 C87.19 1310.41
							 87.05 1310.28 86.88 1310.19 C86.61 1310.05 86.45 1310.29 86.21 1310.14 C86.09 1310.05 86.06 1309.97
							 85.92 1309.9 C85.82 1309.85 85.74 1309.76 85.67 1309.68 C85.59 1309.6 85.52 1309.52 85.42 1309.47 C85.39
							 1309.37 85.35 1309.26 85.27 1309.2 C85.09 1309.07 84.44 1308.6 84.44 1308.34 C84.15 1308 83.81 1307.92
							 83.63 1307.48 C83.5 1307.16 83.17 1306.94 83.06 1306.63 C82.84 1306.06 82.51 1305.54 82.26 1304.98 C81.98
							 1304.34 81.84 1303.61 81.67 1302.93 C81.47 1302.12 81.29 1301.26 81.23 1300.43 C81.2 1300.11 81.01 1299.57
							 81.15 1299.29 C81.33 1298.91 80.88 1298.72 80.62 1298.69 C80.44 1298.66 80.3 1298.51 80.15 1298.48 C79.97
							 1298.44 79.79 1298.36 79.64 1298.27 C79.39 1298.12 79.11 1298 78.84 1297.86 C78.27 1297.56 77.65 1297.26
							 77.04 1297.1 C76.92 1297.07 76.79 1297.03 76.66 1297.03 C76.58 1296.92 76.46 1296.85 76.33 1296.79 C76.06
							 1296.65 75.9 1296.44 75.69 1296.24 C75.45 1296.03 75.01 1295.77 74.71 1295.71 C74.64 1295.7 73.81 1295.5
							 73.81 1295.43 C73.56 1295.34 73.53 1295.34 73.61 1295.05 C73.66 1294.86 73.7 1294.68 73.73 1294.5 C74.02
							 1292.68 74 1290.76 73.94 1288.91 C73.9 1287.75 73.79 1286.6 73.68 1285.45 C73.62 1284.79 73.58 1284.13
							 73.54 1283.48 C73.51 1283.07 73.44 1282.74 73.39 1282.34 C73.22 1280.97 73.02 1279.61 72.86 1278.24
							 C72.82 1277.94 72.68 1277.66 72.62 1277.38 C72.56 1277.17 72.48 1277.1 72.47 1276.87 C72.47 1276.67
							 72.52 1276.5 72.52 1276.33 C72.54 1275.99 72.46 1275.64 72.4 1275.31 C72.36 1275.02 72.31 1274.73 72.27
							 1274.43 C72.2 1274.02 72.16 1273.45 71.92 1273.07 C71.88 1273 71.62 1272.94 71.62 1272.9 C71.47 1272.8
							 71.43 1272.38 71.35 1272.21 C71.16 1271.82 71.02 1271.4 70.81 1271.02 C70.59 1270.64 70.3 1270.33 69.95
							 1270.07 C69.67 1269.86 69.38 1269.68 69.11 1269.48 C68.92 1269.33 68.66 1269.19 68.44 1269.1 C68.28
							 1269.03 68.14 1268.94 68.01 1268.84 C67.86 1268.71 67.75 1268.55 67.61 1268.41 C67.47 1268.28 67.37
							 1268.12 67.24 1267.98 C67.14 1267.88 67.04 1267.77 66.92 1267.68 C66.57 1267.44 66.1 1266.96 65.66 1267.33
							 C65.55 1267.42 65.45 1267.61 65.43 1267.74 C65.31 1267.62 65.06 1267.21 65.01 1267.05 C64.94 1266.78
							 64.84 1266.57 64.66 1266.32 C64.25 1265.74 64.28 1264.95 63.75 1264.45 C63.6 1264.32 63.36 1264.14 63.22
							 1264.26 C63.02 1264.44 62.96 1264.57 63.06 1264.86 C63.2 1265.27 63.3 1265.61 63.3 1266.04 C63.08 1266.04
							 62.77 1265.12 62.68 1264.93 C62.56 1264.66 62.05 1264 61.73 1264.44 C61.61 1264.59 61.54 1264.75 61.58
							 1264.93 C61.65 1265.15 61.85 1265.23 61.72 1265.46 C61.57 1265.72 61.9 1266.19 61.97 1266.49 C62.02
							 1266.67 62.35 1267.22 62.4 1267.33 C62.59 1267.79 62.93 1268.18 63.15 1268.63 C63.38 1269.11 63.81 1269.36
							 64.11 1269.78 C64.34 1270.09 64.48 1270.43 64.61 1270.78 C64.86 1271.46 65.25 1271.9 65.85 1272.3 C66.06
							 1272.44 67.76 1273.7 67.68 1273.83 C67.48 1274.15 66.93 1274.2 66.79 1274.58 C66.71 1274.79 66.59 1274.95
							 66.62 1275.19 C66.66 1275.46 66.76 1275.72 66.79 1275.98 C66.89 1276.73 66.93 1277.43 67.22 1278.13
							 C67.32 1278.38 67.48 1278.62 67.55 1278.87 C67.63 1279.2 67.44 1279.65 67.31 1279.94 C67.24 1280.12
							 67.07 1280.59 66.9 1280.67 C66.79 1281.1 66.9 1281.46 66.84 1281.87 C66.81 1282.15 66.84 1282.47 66.85
							 1282.75 C66.88 1283.09 67 1283.32 67.08 1283.6 C67.15 1283.83 67.22 1283.92 67.24 1284.17 C67.25 1284.5
							 67.23 1284.81 67.18 1285.13 C67.09 1285.71 67.12 1286.33 66.98 1286.88 C66.89 1287.25 66.79 1287.69
							 66.77 1288.06 C66.76 1288.39 66.64 1288.88 66.74 1289.17 C66.83 1289.43 67.09 1289.59 67.17 1289.83
							 C67.2 1289.92 67.01 1289.92 67.01 1290.02 C66.67 1290.02 66.37 1290.56 66.2 1290.81 C65.95 1291.2 66.02
							 1291.72 65.97 1292.17 C65.95 1292.3 65.91 1292.43 65.9 1292.57 C65.89 1292.67 65.98 1292.77 65.92 1292.86
							 C65.82 1293.03 65.51 1292.95 65.36 1292.96 C64.48 1293.06 63.65 1293.21 62.87 1293.63 C62.47 1293.83
							 62.12 1293.97 61.77 1294.25 C61.55 1294.42 61.31 1294.59 61.06 1294.73 C60.86 1294.84 60.69 1295.02
							 60.47 1295.14 C60.42 1295.17 60.19 1295.27 60.19 1295.31 C59.94 1295.31 60.07 1295.17 60.07 1295.01
							 C59.74 1295.2 59.86 1294.91 59.84 1294.68 C59.84 1294.56 60.01 1294.26 60.12 1294.24 C60.02 1294.25
							 60.14 1294.12 60.18 1294.1 C60.27 1294.04 60.25 1293.88 60.22 1293.79 C60.32 1293.76 60.5 1293.77 60.56
							 1293.66 C60.64 1293.49 60.4 1293.4 60.51 1293.23 C60.61 1293.05 60.61 1292.84 60.66 1292.64 C60.52 1292.52
							 60.42 1292.41 60.44 1292.22 C60.46 1291.97 60.55 1291.85 60.35 1291.69 C60.21 1291.58 60.24 1291.51
							 60.03 1291.57 C59.83 1291.63 59.62 1291.65 59.41 1291.63 C59.44 1291.47 59.5 1291.29 59.45 1291.14 C59.41
							 1291.02 59.35 1291.13 59.36 1290.98 C59.37 1290.87 59.39 1290.76 59.37 1290.65 C59.36 1290.54 59.23
							 1290.4 59.2 1290.27 C59.16 1290.12 59.09 1290 59.01 1289.88 C58.88 1289.66 58.52 1289.37 58.56 1289.11
							 C58.59 1288.81 58.62 1288.51 58.6 1288.21 C58.58 1288 58.31 1287.62 58.2 1287.44 C57.98 1287.12 57.74
							 1286.71 57.44 1286.48 C57.29 1286.36 57.03 1286.21 56.93 1286.06 C56.84 1285.91 56.75 1285.79 56.63
							 1285.67 C56.57 1285.61 56.27 1285.63 56.27 1285.51 C55.95 1285.45 55.68 1285.26 55.38 1285.16 C55.27
							 1284.94 54.74 1284.94 54.57 1284.83 C54.31 1284.66 53.91 1284.84 53.63 1284.66 C53.52 1284.59 53.46
							 1284.43 53.36 1284.32 C53.23 1284.19 53.07 1283.94 52.85 1283.94 C52.71 1283.65 52.21 1283.52 51.91
							 1283.47 C51.85 1283.46 51.07 1283.37 51.07 1283.34 C50.8 1283.35 50.72 1283.54 50.52 1283.63 C50.35
							 1283.71 50.2 1283.85 50.05 1283.93 C49.81 1284.07 49.39 1284.01 49.12 1284.01 C48.94 1284.01 48.76 1284.04
							 48.59 1284.11 C48.57 1284.12 48.11 1284.38 48.11 1284.38 C47.79 1284.38 47.55 1284.53 47.31 1284.71
							 C47.06 1284.89 46.85 1285.06 46.62 1285.27 C46.55 1285.42 46.36 1285.48 46.24 1285.57 C46.09 1285.68
							 45.95 1285.83 45.82 1285.96 C45.66 1286.12 45.45 1286.22 45.27 1286.37 C45.07 1286.53 45.04 1286.79
							 44.86 1286.98 C44.7 1287.15 44.52 1287.37 44.43 1287.59 C44.34 1287.85 44.12 1288.05 44.02 1288.29 C43.99
							 1288.36 43.79 1288.9 43.71 1288.9 C43.71 1289.11 43.6 1289.36 43.5 1289.54 C43.38 1289.74 43.08 1289.83
							 43.02 1290.06 C42.99 1290.19 43.05 1290.28 42.99 1290.42 C42.93 1290.58 43 1290.67 43.06 1290.82 C43.19
							 1291.12 43.03 1291.43 42.98 1291.76 C42.92 1292.19 42.79 1292.62 42.73 1293.05 C42.75 1293.17 42.77
							 1293.28 42.88 1293.35 C43.06 1293.46 43.06 1293.43 43.04 1293.64 C43.03 1293.9 43.07 1294.11 43.11 1294.35
							 C43.13 1294.5 43.17 1294.66 43.26 1294.78 C43.4 1294.96 43.27 1295.11 43.27 1295.31 C43.42 1295.31 43.39
							 1295.11 43.53 1295.07 C43.71 1295.34 43.76 1295.01 43.77 1294.86 C43.92 1294.98 43.94 1295.25 43.95
							 1295.42 C43.96 1295.61 44.05 1295.7 44.12 1295.88 C44.16 1296.02 44.31 1295.92 44.42 1296 C44.57 1296.1
							 44.64 1296.38 44.73 1296.53 C45 1296.91 45.19 1297.36 45.55 1297.68 C45.74 1297.85 45.82 1297.85 45.86
							 1298.12 C45.91 1298.45 46.04 1298.78 46.19 1299.08 C46.32 1299.33 46.41 1299.81 46.61 1300.01 C46.72
							 1300.11 46.83 1300.35 46.94 1300.49 C47.1 1300.7 47.25 1300.92 47.39 1301.16 C47.58 1301.46 47.82 1301.81
							 48.08 1302.06 C48.34 1302.33 48.48 1302.71 48.79 1302.94 C48.79 1303.09 49.04 1303.3 49.15 1303.38 C49.15
							 1303.58 49.39 1303.69 49.46 1303.84 C49.63 1304.21 50.26 1304.5 50.02 1304.94 C49.86 1305.21 49.58 1305.28
							 49.29 1305.38 C49.15 1305.43 49.03 1305.44 48.88 1305.48 C48.66 1305.53 48.4 1305.71 48.19 1305.7 C47.92
							 1305.7 47.67 1305.54 47.41 1305.47 C47.06 1305.37 46.64 1305.3 46.33 1305.11 C46.19 1305.03 45.97 1305.02
							 45.81 1304.94 C45.55 1304.82 45.29 1304.69 45.03 1304.57 C44.74 1304.44 44.4 1304.34 44.1 1304.23 C43.82
							 1304.12 43.42 1304.09 43.13 1304.1 C42.68 1304.11 42.15 1304.07 41.72 1304.24 C41.33 1304.39 41.02 1304.72
							 40.81 1305.06 C40.69 1305.25 40.84 1305.64 40.86 1305.85 C40.87 1305.93 40.98 1306.71 40.86 1306.71
							 C40.85 1307.07 40.85 1308.01 40.42 1308.13 C39.91 1308.28 39.68 1307.75 39.26 1307.61 C38.8 1307.46
							 38.27 1307.56 37.89 1307.18 C37.75 1307.05 37.33 1307.07 37.12 1307.03 C36.85 1306.98 36.57 1306.92
							 36.29 1306.92 C35.61 1306.92 34.93 1306.72 34.25 1306.72 C33.63 1306.71 33.02 1306.82 32.41 1306.84
							 C32.25 1306.85 32.09 1306.85 31.93 1306.86 C31.85 1306.79 31.79 1306.7 31.71 1306.65 C31.56 1306.55
							 31.42 1306.36 31.27 1306.23 C30.94 1305.94 30.66 1305.66 30.22 1305.56 C29.85 1305.48 29.48 1305.46
							 29.11 1305.4 C28.59 1305.31 27.99 1305.35 27.5 1305.19 C27.07 1305.05 26.61 1304.99 26.18 1304.85 C24.93
							 1304.45 23.59 1304.26 22.3 1304.04 C21.92 1303.98 21.54 1303.89 21.14 1303.83 C20.54 1303.73 19.95 1303.71
							 19.38 1303.57 C19.11 1303.51 18.85 1303.46 18.57 1303.44 C18.4 1303.43 18.23 1303.42 18.06 1303.41 C17.96
							 1303.41 17.88 1303.34 17.77 1303.31 C17.47 1303.23 17.12 1303.25 16.83 1303.14 C16.77 1303.12 16.52
							 1303.11 16.52 1303.03 C16.29 1303.03 16.09 1302.97 15.89 1302.96 C15.56 1302.94 15.43 1302.96 15.13
							 1302.8 C14.81 1302.63 14.48 1302.41 14.12 1302.34 C13.83 1302.29 13.57 1302.16 13.3 1302.11 C13 1302.07
							 12.7 1302.01 12.4 1301.93 C12.21 1301.89 11.75 1301.67 11.62 1301.93 C11.51 1302.16 11.5 1302.43 11.42
							 1302.67 C11.22 1302.65 11 1302.61 10.81 1302.54 C9.86 1302.17 9.25 1301.48 8.77 1300.59 C8.55 1300.19
							 8.34 1299.8 8.18 1299.37 C8.11 1299.17 8.06 1298.97 7.98 1298.78 C7.93 1298.66 7.86 1298.56 7.81 1298.44
							 C7.76 1298.3 7.53 1298.17 7.4 1298.05 C7.18 1297.84 6.92 1297.66 6.73 1297.42 C6.56 1297.2 6.42 1296.83
							 6.14 1296.72 C5.89 1296.63 5.72 1296.54 5.5 1296.4 C5.26 1296.23 5.13 1296.05 4.91 1295.86 C4.53 1295.54
							 4.27 1296.02 4.3 1296.37 C4.33 1296.7 4.39 1296.87 4.57 1297.12 C4.73 1297.36 4.9 1297.58 5.11 1297.77
							 C5.29 1297.93 5.5 1297.91 5.56 1298.14 C5.62 1298.34 5.78 1298.51 5.8 1298.72 C5.52 1298.68 5.33 1298.42
							 5.06 1298.32 C4.74 1298.19 4.46 1298.03 4.18 1297.81 C3.76 1297.5 3.14 1297.59 2.67 1297.38 C2.16 1297.16
							 1.59 1297.12 1.05 1297.01 C0.43 1296.89 0 1297.63 0.55 1298.04 C0.55 1298.19 1.09 1298.31 1.19 1298.34
							 C1.31 1298.38 1.43 1298.41 1.56 1298.45 C1.68 1298.48 1.8 1298.51 1.92 1298.55 C1.93 1298.69 1.97 1298.82
							 2.04 1298.94 C2.22 1299.29 2.51 1299.59 2.8 1299.86 C3.23 1300.26 2.82 1300.24 2.75 1300.66 C2.65 1301.26
							 3.29 1301.78 3.59 1302.22 C3.72 1302.41 3.82 1302.61 4 1302.76 C4.34 1303.05 4.46 1303.38 4.29 1303.83
							 C4.08 1303.75 3.87 1303.67 3.69 1303.56 C3.56 1303.48 3.47 1303.36 3.31 1303.33 C2.73 1303.23 2.77 1303.89
							 2.96 1304.21 C3.1 1304.45 3.57 1304.81 3.84 1304.91 C3.98 1304.96 4.19 1305.01 4.3 1305.12 C4.41 1305.25
							 4.43 1305.47 4.56 1305.61 C4.76 1305.84 5.11 1305.95 5.4 1306.07 C5.77 1306.23 6.22 1306.5 6.63 1306.58
							 C6.91 1306.63 7.19 1306.75 7.52 1306.77 C8.05 1306.81 8.58 1306.79 9.1 1306.91 C9.39 1306.98 9.69 1307.02
							 9.98 1307.13 C10.12 1307.18 10.31 1307.24 10.44 1307.29 C10.74 1307.39 10.73 1307.36 10.72 1307.73 C10.71
							 1308.07 10.72 1308.39 10.81 1308.72 C10.85 1308.89 10.88 1309.36 11.01 1309.43 C11.08 1309.47 12.16
							 1309.65 12.16 1309.65 C12.59 1309.67 12.92 1309.77 13.3 1309.89 C13.56 1309.97 13.91 1309.92 14.18 1309.9
							 C14.56 1309.89 14.94 1309.86 15.33 1309.83 C15.62 1309.81 15.95 1309.73 16.24 1309.83 C16.49 1309.92
							 16.7 1310.07 16.92 1310.2 C17.08 1310.29 17.37 1310.32 17.49 1310.42 C17.65 1310.55 18.08 1310.59 18.29
							 1310.65 C18.65 1310.74 18.97 1310.81 19.33 1310.87 C19.96 1310.99 20.55 1311.28 21.16 1311.48 C21.73
							 1311.67 22.33 1311.67 22.93 1311.75 C23.32 1311.79 23.64 1311.99 24.03 1312.08 C24.61 1312.2 25.24 1312.45
							 25.85 1312.45 C26.52 1312.44 27.08 1312.77 27.7 1312.97 C28.36 1313.18 28.94 1313.46 29.53 1313.77 C29.82
							 1313.93 30.09 1314.1 30.42 1314.21 C30.78 1314.33 31.15 1314.44 31.52 1314.58 C32.05 1314.78 32.66 1314.8
							 33.2 1314.98 C33.73 1315.15 34.24 1315.26 34.79 1315.36 C35.26 1315.45 35.73 1315.53 36.2 1315.63 C36.52
							 1315.7 36.83 1315.77 37.16 1315.79 C37.46 1315.8 37.95 1315.74 38.19 1315.9 C38.72 1316.26 39.46 1316.14
							 40.07 1316.3 C40.34 1316.37 40.66 1316.4 40.89 1316.56 C41.03 1316.66 41.17 1316.85 41.29 1316.98 C41.44
							 1317.15 41.38 1317.38 41.51 1317.55 C41.74 1317.85 41.81 1318.38 41.92 1318.76 C42.03 1319.12 42.18
							 1319.47 42.31 1319.8 C42.41 1320.06 42.38 1320.35 42.5 1320.6 C42.6 1320.82 42.71 1321 42.75 1321.24
							 C42.88 1321.91 42.95 1322.85 43.33 1323.43 C43.52 1323.71 43.57 1324.2 43.69 1324.55 C43.81 1324.92
							 43.96 1325.28 44.07 1325.66 C44.24 1326.24 44.56 1326.81 44.72 1327.39 C44.89 1327.96 45.14 1328.49
							 45.32 1329.02 C45.78 1330.35 46.29 1331.64 46.87 1332.93 C46.99 1333.19 47.08 1333.45 47.23 1333.68
							 C47.33 1333.85 47.39 1334.05 47.48 1334.23 C47.48 1334.43 47.71 1334.59 47.74 1334.76 C47.77 1334.91
							 47.67 1335.04 47.55 1335.11 C47.35 1335.24 47.22 1335.31 47.05 1335.48 C46.79 1335.74 46.58 1336.03
							 46.35 1336.31 C45.96 1336.76 46.04 1337.81 46.03 1338.36 C46.03 1338.68 46.08 1338.82 46.2 1339.1 C46.26
							 1339.27 46.06 1339.49 46.1 1339.7 C46.12 1339.88 46.03 1340.02 45.98 1340.21 C45.92 1340.47 45.93 1340.89
							 45.74 1341.1 C45.66 1341.18 45.73 1341.38 45.63 1341.45 C45.55 1341.51 45.21 1341.43 45.08 1341.45 C44.87
							 1341.48 44.65 1341.32 44.48 1341.49 C44.35 1341.64 44.38 1341.93 44.28 1342.11 C43.98 1342.62 43.73
							 1343.15 43.38 1343.64 C43.27 1343.79 43.12 1343.88 42.99 1344.01 C42.52 1344.51 42.34 1345.24 41.8 1345.69
							 C41.35 1346.07 41.38 1346.62 41.05 1347.05 C40.91 1347.22 40.57 1347.62 40.57 1347.85 C40.42 1347.85
							 40.31 1348.17 40.15 1348.21 C40.15 1348.3 39.73 1348.4 39.68 1348.51 C39.46 1348.51 39.43 1348.46 39.25
							 1348.25 C39.1 1348.08 38.96 1347.9 38.79 1347.74 C38.53 1347.5 38.2 1347.31 37.89 1347.13 C37.09 1346.64
							 36.03 1346.62 35.17 1346.93 C34.78 1347.07 34.37 1347.16 33.97 1347.26 C33.56 1347.38 33.14 1347.55
							 32.73 1347.66 C32.31 1347.78 31.86 1347.77 31.44 1347.91 C30.89 1348.1 30.18 1348.06 29.61 1348.12 C28.87
							 1348.19 28.12 1348.54 27.59 1349.07 C27.3 1349.36 27.05 1349.69 26.79 1350.01 C26.59 1350.25 26.15 1350.59
							 26.05 1350.88 C25.94 1350.96 25.72 1351.29 25.68 1351.4 C25.54 1351.87 25.25 1352.24 25.18 1352.74 C25.16
							 1352.92 25.15 1353.09 25.11 1353.27 C25.06 1353.46 24.96 1353.62 24.96 1353.83 C24.95 1354.04 25.01
							 1354.24 25.03 1354.44 C25.05 1354.57 25.06 1354.69 25.11 1354.82 C25.15 1354.92 25.21 1355.05 25.31
							 1355.1 C25.31 1355.25 25.25 1355.39 25.25 1355.54 C25.12 1355.54 24.84 1357.04 24.83 1357.19 C24.72
							 1357.92 24.5 1358.6 24.42 1359.35 C24.33 1360.21 24.21 1361.11 24.27 1361.97 C24.29 1362.3 24.3 1362.62
							 24.32 1362.95 C24.32 1363.18 24.29 1363.41 24.32 1363.63 C24.35 1363.84 24.48 1364.03 24.49 1364.25
							 C24.53 1365.02 24.33 1365.78 24.38 1366.56 C24.41 1366.9 24.44 1367.25 24.48 1367.6 C24.53 1367.98 24.63
							 1368.28 24.74 1368.64 C24.85 1368.98 24.94 1369.32 25.03 1369.66 C25.08 1369.81 25.16 1369.91 25.21
							 1370.06 C25.27 1370.26 25.52 1370.45 25.52 1370.65 C25.66 1370.65 25.84 1371.23 25.93 1371.35 C26.19
							 1371.68 26.4 1372.1 26.8 1372.28 C27.15 1372.44 27.42 1372.68 27.79 1372.83 C27.9 1372.87 28.6 1373.05
							 28.6 1373.12 C28.94 1373.12 29.25 1373.32 29.58 1373.35 C29.97 1373.38 30.37 1373.37 30.77 1373.37 C31.2
							 1373.37 31.86 1373.53 32.27 1373.36 C32.52 1373.26 32.74 1373.08 33.01 1373 C33.32 1372.91 33.56 1372.77
							 33.83 1372.66 C34 1372.59 34.18 1372.51 34.33 1372.41 C34.46 1372.32 34.75 1372.11 34.92 1372.11 C34.92
							 1372.04 35.5 1371.77 35.59 1371.72 C35.97 1371.54 36.45 1371.36 36.73 1371.06 C36.98 1370.81 37.18 1370.55
							 37.43 1370.3 C37.69 1370.03 37.78 1369.63 38.03 1369.35 C38.13 1369.24 38.71 1368.75 38.88 1368.88 C39.16
							 1369.09 39.18 1369.55 39.43 1369.8 C39.7 1370.07 39.89 1370.5 40.14 1370.79 C40.44 1371.14 40.74 1371.42
							 41 1371.81 C41.3 1372.27 41.71 1372.64 42.09 1373.04 C42.33 1373.31 42.61 1373.64 42.89 1373.88 C43.28
							 1374.21 43.62 1374.56 44 1374.9 C44.52 1375.36 45.09 1375.77 45.55 1376.29 C45.75 1376.29 45.82 1376.58
							 45.98 1376.66 C46.16 1376.75 46.31 1376.96 46.5 1377.05 C46.83 1377.21 47.04 1377.62 47.37 1377.76 C47.55
							 1377.84 47.69 1378.02 47.81 1378.16 C47.94 1378.16 48.13 1378.36 48.19 1378.46 C48.42 1378.46 48.64
							 1379.01 48.77 1379.16 C49.19 1379.69 49.44 1380.3 49.87 1380.82 C50.14 1381.14 50.36 1381.59 50.67 1381.87
							 C50.95 1382.13 51.22 1382.53 51.37 1382.88 C51.63 1383.47 52.02 1384.09 52.44 1384.59 C52.68 1384.88
							 53.04 1385.04 53.33 1385.29 C53.48 1385.41 53.57 1385.52 53.71 1385.65 C53.8 1385.73 53.88 1385.82 53.96
							 1385.91 C54.05 1385.91 54.19 1386.01 54.25 1386.07 C54.5 1386.31 54.88 1386.46 55.2 1386.6 C55.49 1386.72
							 55.8 1386.84 56.11 1386.9 C56.69 1387.01 57.28 1387.13 57.88 1387.04 C58.27 1386.97 58.63 1386.86 58.99
							 1386.72 C59.5 1386.51 59.84 1386.67 60.1 1386.12 C60.41 1385.46 60.81 1384.86 61.14 1384.2 C61.4 1383.7
							 61.65 1383.2 61.84 1382.69 C62.1 1382.02 62.44 1381.4 62.74 1380.75 C62.86 1380.49 62.96 1380.31 63.02
							 1380.02 C63.11 1379.58 63.37 1379.2 63.44 1378.75 C63.57 1377.95 63.97 1377.14 64.3 1376.38 C64.66 1375.57
							 64.86 1374.7 65.17 1373.84 C65.26 1373.59 65.39 1373.35 65.48 1373.1 C65.59 1372.82 65.58 1372.55 65.61
							 1372.26 C65.65 1371.84 65.82 1371.48 65.89 1371.07 C66.04 1370.15 65.95 1369.18 66.27 1368.32 C66.39
							 1368.02 66.39 1367.66 66.44 1367.34 C66.49 1367 66.58 1366.68 66.67 1366.34 C66.81 1365.79 67.03 1365.27
							 67.09 1364.69 C67.15 1364.13 67.25 1363.56 67.3 1363.02 C67.33 1362.68 67.45 1362.35 67.48 1362.02 C67.53
							 1361.45 67.45 1360.78 67.63 1360.24 C67.69 1360.06 67.81 1359.93 67.86 1359.76 C67.92 1359.59 67.98
							 1359.11 68.08 1359 C68.29 1358.77 68.22 1358.21 68.25 1357.92 C68.32 1357.28 68.53 1356.66 68.7 1356.05
							 C68.82 1355.59 68.78 1355.13 68.97 1354.7 C69.01 1354.61 68.87 1354.45 68.87 1354.35 C68.86 1354.22
							 69.08 1353.9 69.13 1353.75 C69.27 1353.34 69.32 1352.83 69.23 1352.42 C69.17 1352.15 69.18 1351.75 69.26
							 1351.49 C69.34 1351.22 69.4 1350.9 69.48 1350.61 C69.58 1350.3 69.8 1349.88 69.61 1349.61 C69.5 1349.47
							 69.76 1349.19 69.81 1349.04 C69.82 1349.04 69.76 1348.68 69.76 1348.66 C69.69 1348.19 70.05 1348.02
							 70.2 1347.59 C70.32 1347.53 70.57 1346.75 70.59 1346.63 C70.63 1346.43 70.57 1346.22 70.62 1346.01 C70.67
							 1345.77 70.82 1345.58 70.9 1345.36 C71.05 1344.98 71.05 1344.48 71.13 1344.07 C71.27 1343.45 71.41 1342.93
							 71.64 1342.33 C71.71 1342.13 71.77 1341.96 71.78 1341.74 C71.8 1341.55 71.77 1340.89 71.98 1340.79 C71.98
							 1340.73 72.23 1340.49 72.27 1340.42 C72.35 1340.29 72.46 1340.19 72.52 1340.07 C72.68 1339.76 72.67
							 1339.35 72.73 1339.02 C72.86 1338.21 72.82 1337.42 72.82 1336.59 C72.82 1336.22 72.97 1335.96 73.07
							 1335.6 C73.15 1335.29 73.15 1334.99 73.15 1334.64 C73.15 1334.26 73.22 1333.9 73.26 1333.51 C73.32 1332.87
							 73.42 1332.23 73.43 1331.59 C73.43 1331.26 73.53 1328.05 73.61 1328.05 C73.61 1327.15 73.71 1326.29
							 73.58 1325.39 C73.56 1325.17 73.56 1324.94 73.54 1324.71 C73.53 1324.54 73.52 1324.37 73.52 1324.19
							 C73.6 1324.15 73.67 1324.05 73.73 1323.99 C73.83 1323.88 74.14 1323.68 74.29 1323.63 C74.39 1323.42
							 74.68 1323.34 74.85 1323.2 C75.53 1322.65 76.18 1321.99 76.94 1321.53 C77.18 1321.39 77.5 1321.21 77.68
							 1321.02 C78.03 1320.63 78.45 1320.38 78.84 1320.02 C79.24 1319.65 79.66 1319.31 80.08 1318.96 C80.48
							 1318.64 80.97 1318.38 81.33 1318.02 C81.72 1317.62 82.23 1317.28 82.7 1316.96 C83.21 1316.62 83.63 1316.19
							 84.08 1315.8 C84.76 1315.2 85.47 1314.66 86.2 1314.13 C86.45 1313.95 86.66 1313.72 86.92 1313.54 C87.17
							 1313.36 87.35 1313.12 87.59 1312.95 C87.9 1312.72 88.29 1312.6 88.6 1312.37 C88.74 1312.27 88.82 1312.1
							 88.94 1311.98 C89.29 1311.66 89.14 1311.54 88.81 1311.38 ZM53.01 1365.96 C53.02 1365.88 52.91 1365.99
							 53 1365.99 C53 1365.99 53.01 1365.98 53.01 1365.96 ZM88.82 1311.38 C88.85 1311.39 88.89 1311.41 88.8
							 1311.37 C88.82 1311.38 88.82 1311.38 88.82 1311.38 ZM53 1365.99 C53.01 1365.98 53.01 1365.96 53.01 1365.95
							 C53.01 1365.95 53.01 1365.96 53.01 1365.96 C53.01 1365.97 53.01 1365.98 53 1365.99 ZM88.81 1311.38 L88.82
							 1311.38 C88.81 1311.38 88.8 1311.37 88.8 1311.37 C88.8 1311.38 88.81 1311.38 88.81 1311.38 Z"
						class="st16"/>
			</g>
		</g>
<!-- 날짜·장소: 아래 <text>의 내용만 바꾸면 됩니다 -->
<g id="shape7011-3452" v:mID="7011" v:groupContext="shape" transform="translate(224.745,-1240.38)">
			<title>시트.7011</title>
			<desc>2021. 8. 31 ~ 2022. 2. 13 대성 디큐브 아트센터</desc>
			<v:textBlock v:margins="rect(4,4,4,4)" v:tabSpace="42.5197"/>
			<v:textRect cx="123.789" cy="1376.36" width="247.58" height="21.5433"/>
			<rect x="0" y="1365.59" width="247.578" height="21.5433" class="st4"/>
			<text x="4" y="1379.96" class="st24" v:langID="1042"><v:paragraph/><v:tabList/>2021. 8. 31 ~ 2022. 2. 13 대성 디큐브 아트센터</text>		</g>
</svg>
